<mxfile host="app.diagrams.net" modified="2024-02-29T20:53:35.194Z" agent="Mozilla/5.0 (X11; Ubuntu; Linux x86_64; rv:123.0) Gecko/20100101 Firefox/123.0" etag="HGL4RMtrIB0qFX4sgO-U" version="24.0.0" type="github">
  <diagram name="Página-1" id="djj3ZXUcn-spQ-AeiXdr">
    <mxGraphModel dx="880" dy="466" grid="1" gridSize="10" guides="1" tooltips="1" connect="1" arrows="1" fold="1" page="1" pageScale="1" pageWidth="827" pageHeight="1169" math="0" shadow="0">
      <root>
        <mxCell id="0" />
        <mxCell id="1" parent="0" />
        <mxCell id="-t3dqLqAsf-GsAG9dkLh-1" value="LOGO" style="rounded=1;whiteSpace=wrap;html=1;" vertex="1" parent="1">
          <mxGeometry x="90" y="40" width="230" height="120" as="geometry" />
        </mxCell>
        <mxCell id="-t3dqLqAsf-GsAG9dkLh-2" value="REDES SOCIALES" style="rounded=0;whiteSpace=wrap;html=1;" vertex="1" parent="1">
          <mxGeometry x="600" y="80" width="200" height="40" as="geometry" />
        </mxCell>
        <mxCell id="-t3dqLqAsf-GsAG9dkLh-3" value="NAVEGACIÓN MENU PRINCIPAL" style="rounded=0;whiteSpace=wrap;html=1;" vertex="1" parent="1">
          <mxGeometry x="40" y="240" width="760" height="80" as="geometry" />
        </mxCell>
        <mxCell id="-t3dqLqAsf-GsAG9dkLh-6" value="GALERIA DONDE SE MUESTRE EL CONTENIDO DONDE SE PRESENTA EL NOMBRE DE LA INSTITUCIUON Y SU SEDE PRINCIPAL" style="rounded=0;whiteSpace=wrap;html=1;" vertex="1" parent="1">
          <mxGeometry x="81" y="640" width="680" height="320" as="geometry" />
        </mxCell>
        <mxCell id="-t3dqLqAsf-GsAG9dkLh-9" style="edgeStyle=orthogonalEdgeStyle;rounded=0;orthogonalLoop=1;jettySize=auto;html=1;exitX=1;exitY=0;exitDx=0;exitDy=0;" edge="1" parent="1" source="-t3dqLqAsf-GsAG9dkLh-8">
          <mxGeometry relative="1" as="geometry">
            <mxPoint x="140" y="450" as="targetPoint" />
          </mxGeometry>
        </mxCell>
        <mxCell id="-t3dqLqAsf-GsAG9dkLh-8" value="&lt;div&gt;FOTO&lt;/div&gt;&lt;div&gt;PRESENTACION DE LA RECTORA&lt;br&gt;&lt;/div&gt;" style="ellipse;whiteSpace=wrap;html=1;aspect=fixed;" vertex="1" parent="1">
          <mxGeometry x="70" y="430" width="140" height="140" as="geometry" />
        </mxCell>
        <mxCell id="-t3dqLqAsf-GsAG9dkLh-10" value="EMBLEMA DE LA INSTITUCION EDUCATIVA" style="rounded=1;whiteSpace=wrap;html=1;" vertex="1" parent="1">
          <mxGeometry x="400" y="440" width="340" height="120" as="geometry" />
        </mxCell>
        <mxCell id="-t3dqLqAsf-GsAG9dkLh-11" value="&lt;div&gt;PRESENTAR INFROMACION ACERCA DE CUANTOS ESTUDIANTES HAY ACTIVOS ACTUALMENTE&lt;/div&gt;&lt;div&gt;PONER EL NUMERO DE SEDES DE PREESCOLAR &lt;br&gt;&lt;/div&gt;&lt;div&gt;NUMERO DE SEDES PRIMARIA &lt;br&gt;&lt;/div&gt;&lt;div&gt;NUMERO DE SEDES DE SECUNDARIA&lt;br&gt;&lt;/div&gt;" style="rounded=1;whiteSpace=wrap;html=1;" vertex="1" parent="1">
          <mxGeometry x="120" y="1000" width="630" height="70" as="geometry" />
        </mxCell>
        <mxCell id="-t3dqLqAsf-GsAG9dkLh-12" value="FOOTER" style="rounded=0;whiteSpace=wrap;html=1;" vertex="1" parent="1">
          <mxGeometry x="40" y="1160" width="760" height="240" as="geometry" />
        </mxCell>
      </root>
    </mxGraphModel>
  </diagram>
</mxfile>
